<svg width="600" height="600" viewBox="0 0 52 52" fill="none" xmlns="http://www.w3.org/2000/svg">
<rect width="52" height="52" fill="#333333"/>
<path d="M25.796 26.6C25.796 31.352 22.532 35 17.372 35H11.06V18.2H17.372C22.532 18.2 25.796 21.848 25.796 26.6ZM21.764 26.624C21.764 24.056 20.012 22.208 17.3 22.208H15.092V30.992H17.3C20.012 30.992 21.764 29.168 21.764 26.624Z" fill="#FFDD2D"/>
<path d="M28.2631 18.2H34.5031C37.7671 18.2 40.3591 20.792 40.3591 24.032C40.3591 26.336 38.9431 28.304 36.9031 29.144C37.9831 29.456 38.7751 31.52 40.2631 31.52C40.5271 31.52 40.7911 31.472 41.1031 31.352V35C40.3831 35.192 39.7351 35.288 39.1591 35.288C35.1031 35.288 34.4551 30.32 33.1351 29.744H32.2951V35H28.2631V18.2ZM32.2951 21.848V26.096H34.0951C35.2951 26.096 36.3271 25.232 36.3271 23.984C36.3271 22.76 35.2951 21.848 34.0951 21.848H32.2951Z" fill="white"/>
</svg>